<svg xmlns="http://www.w3.org/2000/svg" width="300" height="214"><path fill="#057c1e" d="M155 48h9l1 29 4-5c3-2 3-2 6-2l4 7-1.242 1.32c-5.355 5.918-7.335 10.986-7.13 19.02.784 5.61 3.112 10.337 7.063 14.398 4.823 3.574 9.608 3.932 15.493 3.703 2.712-.425 4.184-.952 6.441-2.441 4.536-2.688 8.232-2.373 13.375-2 0 4 0 4-2 6.25l-2 1.75 1 1v11h-39v-11c-1.14-2.82-1.14-2.82-3-4.687L165 112l-1 18h-9l-1-41-5 8c-3.704 3.304-8.008 5.532-13 6l.14 1.906c.337 7.98-1.356 12.882-6.577 18.906-6.11 5.215-11.092 6.522-18.973 6.395-6.891-.55-11.496-3.252-16.113-8.344-5.6-7.066-4.803-14.167-4.477-22.863l-1.89-.898C85.42 96.698 84.42 95.698 83 93c-.845-6.545-.845-6.545 1.055-9.816 2.33-2.862 4.192-4.974 7.933-5.422 4.166-.133 6.39-.15 10.012 2.113 3.29 3.495 3.39 6.14 3.36 10.793-.607 3.935-2.483 5.66-5.36 8.332h-2l1 2c.128 1.582.228 3.165.313 4.75.548 5.849 2.375 9.324 6.937 13.125 3.648 1.493 6.903 1.804 10.75 1.125 4.427-2.255 6.945-4.478 9-9 .786-2.655 1.403-5.292 2-8l-2.5-.125c-7.252-1.813-11.814-6.588-15.59-12.848-2.864-6.378-2.131-13.695-2.16-20.527l-.062-3.707-.016-3.574-.028-3.252c.405-3.377 1.334-5.255 3.356-7.967 2.05-.707 2.05-.707 4.313-.812l2.398-.133L120 50l3.438-.187C126 50 126 50 128 52c.25 3 .25 3 0 6l-2 2c-2.164-.023-2.164-.023-4.625-.375l-2.477-.336L117 59c.052 3.668.148 7.333.25 11l.043 3.121C117.506 79.82 118.456 84.277 122 90c3.61 3.301 7.142 3.461 11.852 3.29 4.027-.543 6.283-2.301 8.898-5.29 2.225-3.56 2.37-6.446 2.348-10.543l-.01-3.252-.025-3.392-.014-3.428Q145.03 63.192 145 59l-3.375.566C138 60 138 60 136 58.937c-1.486-2.878-.797-4.882 0-7.937 1.786-1.786 4.337-1.215 6.75-1.25l3.172-.078c3.426.365 5.287 1.364 8.078 3.328zM93 87v3h3l-1-3z"/><path fill="#fcc104" d="M155 48h9l1 29 4-5c3-2 3-2 6-2l4 7-1.242 1.32c-5.355 5.918-7.335 10.986-7.13 19.02.784 5.61 3.112 10.337 7.063 14.398 4.823 3.574 9.608 3.932 15.493 3.703 2.712-.425 4.184-.952 6.441-2.441 4.536-2.688 8.232-2.373 13.375-2 0 4 0 4-2 6.25l-2 1.75 1 1v11h-39v-11c-1.14-2.82-1.14-2.82-3-4.687L165 112l-1 18h-9z"/><path fill="#fcc104" d="M189 56c1.67 2.253 1.67 2.253 3.113 5.207l1.592 3.217 1.607 3.388 1.667 3.354C201 79.424 201 79.424 201 84a1505 1505 0 0 1-5.875 3l-3.305 1.688C189 90 189 90 187 90l-14-28c2.436-2.436 3.938-3.718 6.875-5.25l1.992-1.078c2.842-.895 4.312-.627 7.133.328"/><path fill="#f8c10f" d="m195.225 99.886 2.904.016 3.135.01 3.298.025 3.311.014q4.064.018 8.127.049v8q-5.718.041-11.438.062l-3.298.026-3.135.01-2.904.016C193 108 193 108 192 107c-.125-3-.125-3 0-6 1-1 1-1 3.225-1.114"/><path fill="#fbc00e" d="m183 48 1 6-7 3c-2-3-2-3-2-6 2.888-2.108 4.385-3 8-3"/><path fill="#fcc008" d="m201 85 3 1c.688 2.063.688 2.063 1 4l-7 3-2-5c2.313-1.562 2.313-1.562 5-3"/><path fill="#fbc108" d="M194.188 89.375 196 90v3l-6 2-1-4c3-2 3-2 5.188-1.625"/></svg>