
<!-- Generator: visioncortex VTracer 0.6.4 -->
<svg version="1.1" xmlns="http://www.w3.org/2000/svg" viewBox="0 0 69 45" preserveAspectRatio="xMidYMid meet">
<path d="M0 0 C1.65 0 3.3 0 5 0 C5.495 6.435 5.495 6.435 6 13 C7.32 12.01 8.64 11.02 10 10 C9.505 8.515 9.505 8.515 9 7 C9.66 6.34 10.32 5.68 11 5 C11 3.68 11 2.36 11 1 C12.32 0.67 13.64 0.34 15 0 C19.748 5.276 24 11.798 24 19 C24.66 19 25.32 19 26 19 C26 20.32 26 21.64 26 23 C23.36 23.66 20.72 24.32 18 25 C14 18.25 14 18.25 14 16 C11.12 18.323 10.065 19.782 9 23.375 C9 27.837 10.18 29.616 13 33 C15.739 34.37 17.971 34.126 21 34 C21.66 33.67 22.32 33.34 23 33 C21.68 32.67 20.36 32.34 19 32 C19 30.35 19 28.7 19 27 C23.29 27 27.58 27 32 27 C32 31.828 31.896 32.208 30 36 C29.67 38.31 29.34 40.62 29 43 C22.07 43 15.14 43 8 43 C7.34 40.69 6.68 38.38 6 36 C5.67 38.31 5.34 40.62 5 43 C3.334 43.043 1.666 43.041 0 43 C-2.119 40.881 -1.418 36.38 -1.562 33.438 C-1.627 32.228 -1.627 32.228 -1.693 30.994 C-1.8 28.996 -1.9 26.998 -2 25 C-2.784 25.66 -3.568 26.32 -4.375 27 C-7 29 -7 29 -9 29 C-9.093 30.825 -9.093 30.825 -9.188 32.688 C-9.728 37.174 -11.456 39.148 -15 42 C-18.535 43.768 -22.15 43.635 -26 43 C-29.07 41.54 -31.077 39.803 -33 37 C-33.828 34.372 -34.294 31.907 -34.613 29.172 C-34.823 26.796 -34.823 26.796 -37 25 C-37.375 21.562 -37.375 21.562 -37 18 C-35.375 16 -35.375 16 -33 15 C-29.875 15.125 -29.875 15.125 -27 16 C-24.433 19.85 -25.167 21.586 -26 26 C-26.66 26 -27.32 26 -28 26 C-27.826 31.495 -27.826 31.495 -25.25 36.062 C-22.373 37.261 -20.922 37 -18 36 C-15.64 33.64 -15.509 32.221 -15 29 C-15.742 28.773 -16.485 28.546 -17.25 28.312 C-20.775 26.63 -21.972 25.368 -24 22 C-24.483 18.547 -24.378 15.165 -24.25 11.688 C-24.232 10.756 -24.214 9.825 -24.195 8.865 C-24.148 6.576 -24.083 4.288 -24 2 C-20.785 0.393 -17.564 0.943 -14 1 C-12.875 4.75 -12.875 4.75 -14 7 C-15.32 7 -16.64 7 -18 7 C-18.054 8.937 -18.093 10.875 -18.125 12.812 C-18.148 13.891 -18.171 14.97 -18.195 16.082 C-18.23 19.194 -18.23 19.194 -16 22 C-13.134 23.089 -13.134 23.089 -10 23 C-7.096 20.83 -6.115 19.569 -5.391 15.984 C-5.321 14.383 -5.321 14.383 -5.25 12.75 C-5.193 11.672 -5.137 10.595 -5.078 9.484 C-5.052 8.665 -5.027 7.845 -5 7 C-7.475 6.505 -7.475 6.505 -10 6 C-10 4.35 -10 2.7 -10 1 C-9.362 1.012 -8.724 1.023 -8.066 1.035 C-7.24 1.044 -6.414 1.053 -5.562 1.062 C-4.327 1.08 -4.327 1.08 -3.066 1.098 C-1.008 1.233 -1.008 1.233 0 0 Z " fill="#FEC000" transform="translate(37,1)"/>
<path d="M0 0 C1.125 3.75 1.125 3.75 0 6 C-1.32 6 -2.64 6 -4 6 C-4.054 7.937 -4.093 9.875 -4.125 11.812 C-4.148 12.891 -4.171 13.97 -4.195 15.082 C-4.23 18.194 -4.23 18.194 -2 21 C0.866 22.089 0.866 22.089 4 22 C6.904 19.83 7.885 18.569 8.609 14.984 C8.679 13.383 8.679 13.383 8.75 11.75 C8.807 10.672 8.863 9.595 8.922 8.484 C8.948 7.665 8.973 6.845 9 6 C6.525 5.505 6.525 5.505 4 5 C4 3.35 4 1.7 4 0 C11.75 -0.125 11.75 -0.125 14 1 C14.146 4.208 14.234 7.415 14.312 10.625 C14.354 11.529 14.396 12.432 14.439 13.363 C14.521 17.849 14.517 21.009 11.625 24.594 C8.165 27.766 8.165 27.766 5 28 C4.907 29.825 4.907 29.825 4.812 31.688 C4.272 36.174 2.544 38.148 -1 41 C-4.535 42.768 -8.15 42.635 -12 42 C-15.07 40.54 -17.077 38.803 -19 36 C-19.828 33.372 -20.294 30.907 -20.613 28.172 C-20.823 25.796 -20.823 25.796 -23 24 C-23.375 20.562 -23.375 20.562 -23 17 C-21.375 15 -21.375 15 -19 14 C-15.875 14.125 -15.875 14.125 -13 15 C-10.433 18.85 -11.167 20.586 -12 25 C-12.66 25 -13.32 25 -14 25 C-13.826 30.495 -13.826 30.495 -11.25 35.062 C-8.373 36.261 -6.922 36 -4 35 C-1.64 32.64 -1.509 31.221 -1 28 C-1.742 27.773 -2.485 27.546 -3.25 27.312 C-6.775 25.63 -7.972 24.368 -10 21 C-10.483 17.547 -10.378 14.165 -10.25 10.688 C-10.232 9.756 -10.214 8.825 -10.195 7.865 C-10.148 5.576 -10.083 3.288 -10 1 C-6.785 -0.607 -3.564 -0.057 0 0 Z " fill="#027E1E" transform="translate(23,2)"/>
</svg>